<svg xmlns="http://www.w3.org/2000/svg" viewBox="0 0 460 460" width="460" height="460">
  <defs>
    <linearGradient id="docGrad" x1="0" y1="0" x2="0" y2="1">
      <stop offset="0%" stop-color="#a0a4ac"/>
      <stop offset="100%" stop-color="#787c84"/>
    </linearGradient>
    <linearGradient id="foldGrad" x1="0" y1="0" x2="1" y2="1">
      <stop offset="0%" stop-color="#c0c4cc"/>
      <stop offset="100%" stop-color="#a0a4ac"/>
    </linearGradient>
    <linearGradient id="scanGlow" x1="0" y1="0" x2="0" y2="1">
      <stop offset="0%" stop-color="rgba(200,20,20,0)"/>
      <stop offset="40%" stop-color="rgba(220,30,30,0.15)"/>
      <stop offset="50%" stop-color="rgba(240,40,40,0.25)"/>
      <stop offset="60%" stop-color="rgba(220,30,30,0.15)"/>
      <stop offset="100%" stop-color="rgba(200,20,20,0)"/>
    </linearGradient>
    <filter id="cyanGlow">
      <feGaussianBlur stdDeviation="5" result="blur"/>
      <feMerge><feMergeNode in="blur"/><feMergeNode in="SourceGraphic"/></feMerge>
    </filter>
    <filter id="pixelGlow">
      <feGaussianBlur stdDeviation="2.5" result="blur"/>
      <feMerge><feMergeNode in="blur"/><feMergeNode in="SourceGraphic"/></feMerge>
    </filter>
    <filter id="redGlow">
      <feGaussianBlur stdDeviation="4" result="blur"/>
      <feMerge><feMergeNode in="blur"/><feMergeNode in="SourceGraphic"/></feMerge>
    </filter>
    <filter id="docShadow">
      <feDropShadow dx="0" dy="3" stdDeviation="8" flood-color="#000" flood-opacity="0.4"/>
    </filter>
    <filter id="particleGlow">
      <feGaussianBlur stdDeviation="1.5" result="blur"/>
      <feMerge><feMergeNode in="blur"/><feMergeNode in="SourceGraphic"/></feMerge>
    </filter>
  </defs>

  <!-- ===== DOCUMENT (wider, shorter) ===== -->
  <g filter="url(#docShadow)">
    <path d="M 130,72 L 298,72 L 332,106 L 332,378 Q 332,386 324,386 L 138,386 Q 130,386 130,378 Z" fill="url(#docGrad)"/>
    <path d="M 298,72 L 298,106 L 332,106 Z" fill="url(#foldGrad)"/>
  </g>

  <!-- ===== CYAN PIXEL TEXT LINES ===== -->
  <g filter="url(#pixelGlow)">
    <!-- Line 1 -->
    <rect x="155" y="118" width="8" height="8" fill="#4de8e0" rx="1"/><rect x="166" y="118" width="8" height="8" fill="#4de8e0" rx="1"/>
    <rect x="177" y="118" width="8" height="8" fill="#4de8e0" rx="1"/><rect x="188" y="118" width="8" height="8" fill="#4de8e0" rx="1"/>
    <rect x="199" y="118" width="8" height="8" fill="#4de8e0" rx="1"/><rect x="210" y="118" width="8" height="8" fill="#4de8e0" rx="1"/>
    <rect x="221" y="118" width="8" height="8" fill="#4de8e0" rx="1"/><rect x="232" y="118" width="8" height="8" fill="#4de8e0" rx="1"/>
    <rect x="243" y="118" width="8" height="8" fill="#4de8e0" rx="1"/>
    <!-- Line 2 -->
    <rect x="155" y="138" width="8" height="8" fill="#4de8e0" rx="1"/><rect x="166" y="138" width="8" height="8" fill="#4de8e0" rx="1"/>
    <rect x="177" y="138" width="8" height="8" fill="#4de8e0" rx="1"/><rect x="188" y="138" width="8" height="8" fill="#4de8e0" rx="1"/>
    <rect x="199" y="138" width="8" height="8" fill="#4de8e0" rx="1"/><rect x="210" y="138" width="8" height="8" fill="#4de8e0" rx="1"/>
    <rect x="221" y="138" width="8" height="8" fill="#4de8e0" rx="1"/><rect x="232" y="138" width="8" height="8" fill="#4de8e0" rx="1"/>
    <rect x="243" y="138" width="8" height="8" fill="#4de8e0" rx="1"/><rect x="254" y="138" width="8" height="8" fill="#4de8e0" rx="1"/>
    <rect x="265" y="138" width="8" height="8" fill="#4de8e0" rx="1"/><rect x="276" y="138" width="8" height="8" fill="#4de8e0" rx="1"/>
    <!-- Line 3 -->
    <rect x="155" y="158" width="8" height="8" fill="#4de8e0" rx="1"/><rect x="166" y="158" width="8" height="8" fill="#4de8e0" rx="1"/>
    <rect x="177" y="158" width="8" height="8" fill="#4de8e0" rx="1"/><rect x="188" y="158" width="8" height="8" fill="#4de8e0" rx="1"/>
    <rect x="199" y="158" width="8" height="8" fill="#4de8e0" rx="1"/><rect x="210" y="158" width="8" height="8" fill="#4de8e0" rx="1"/>
    <rect x="221" y="158" width="8" height="8" fill="#4de8e0" rx="1"/>
    <!-- Line 4 -->
    <rect x="155" y="178" width="8" height="8" fill="#4de8e0" rx="1"/><rect x="166" y="178" width="8" height="8" fill="#4de8e0" rx="1"/>
    <rect x="177" y="178" width="8" height="8" fill="#4de8e0" rx="1"/><rect x="188" y="178" width="8" height="8" fill="#4de8e0" rx="1"/>
    <rect x="199" y="178" width="8" height="8" fill="#4de8e0" rx="1"/><rect x="210" y="178" width="8" height="8" fill="#4de8e0" rx="1"/>
    <rect x="221" y="178" width="8" height="8" fill="#4de8e0" rx="1"/><rect x="232" y="178" width="8" height="8" fill="#4de8e0" rx="1"/>
    <rect x="243" y="178" width="8" height="8" fill="#4de8e0" rx="1"/><rect x="254" y="178" width="8" height="8" fill="#4de8e0" rx="1"/>

    <!-- Line 5 (below scan line) -->
    <rect x="155" y="260" width="8" height="8" fill="#4de8e0" rx="1"/><rect x="166" y="260" width="8" height="8" fill="#4de8e0" rx="1"/>
    <rect x="177" y="260" width="8" height="8" fill="#4de8e0" rx="1"/><rect x="188" y="260" width="8" height="8" fill="#4de8e0" rx="1"/>
    <rect x="199" y="260" width="8" height="8" fill="#4de8e0" rx="1"/><rect x="210" y="260" width="8" height="8" fill="#4de8e0" rx="1"/>
    <rect x="221" y="260" width="8" height="8" fill="#4de8e0" rx="1"/><rect x="232" y="260" width="8" height="8" fill="#4de8e0" rx="1"/>
    <rect x="243" y="260" width="8" height="8" fill="#4de8e0" rx="1"/><rect x="254" y="260" width="8" height="8" fill="#4de8e0" rx="1"/>
    <rect x="265" y="260" width="8" height="8" fill="#4de8e0" rx="1"/>
    <!-- Line 6 -->
    <rect x="155" y="280" width="8" height="8" fill="#4de8e0" rx="1"/><rect x="166" y="280" width="8" height="8" fill="#4de8e0" rx="1"/>
    <rect x="177" y="280" width="8" height="8" fill="#4de8e0" rx="1"/><rect x="188" y="280" width="8" height="8" fill="#4de8e0" rx="1"/>
    <rect x="199" y="280" width="8" height="8" fill="#4de8e0" rx="1"/><rect x="210" y="280" width="8" height="8" fill="#4de8e0" rx="1"/>
    <rect x="221" y="280" width="8" height="8" fill="#4de8e0" rx="1"/><rect x="232" y="280" width="8" height="8" fill="#4de8e0" rx="1"/>
    <!-- Line 7 -->
    <rect x="155" y="300" width="8" height="8" fill="#4de8e0" rx="1"/><rect x="166" y="300" width="8" height="8" fill="#4de8e0" rx="1"/>
    <rect x="177" y="300" width="8" height="8" fill="#4de8e0" rx="1"/><rect x="188" y="300" width="8" height="8" fill="#4de8e0" rx="1"/>
    <rect x="199" y="300" width="8" height="8" fill="#4de8e0" rx="1"/><rect x="210" y="300" width="8" height="8" fill="#4de8e0" rx="1"/>
    <rect x="221" y="300" width="8" height="8" fill="#4de8e0" rx="1"/><rect x="232" y="300" width="8" height="8" fill="#4de8e0" rx="1"/>
    <rect x="243" y="300" width="8" height="8" fill="#4de8e0" rx="1"/><rect x="254" y="300" width="8" height="8" fill="#4de8e0" rx="1"/>
    <rect x="265" y="300" width="8" height="8" fill="#4de8e0" rx="1"/><rect x="276" y="300" width="8" height="8" fill="#4de8e0" rx="1"/>
    <!-- Line 8 -->
    <rect x="155" y="320" width="8" height="8" fill="#4de8e0" rx="1"/><rect x="166" y="320" width="8" height="8" fill="#4de8e0" rx="1"/>
    <rect x="177" y="320" width="8" height="8" fill="#4de8e0" rx="1"/><rect x="188" y="320" width="8" height="8" fill="#4de8e0" rx="1"/>
    <rect x="199" y="320" width="8" height="8" fill="#4de8e0" rx="1"/><rect x="210" y="320" width="8" height="8" fill="#4de8e0" rx="1"/>
    <rect x="221" y="320" width="8" height="8" fill="#4de8e0" rx="1"/><rect x="232" y="320" width="8" height="8" fill="#4de8e0" rx="1"/>
    <rect x="243" y="320" width="8" height="8" fill="#4de8e0" rx="1"/>
    <!-- Line 9 -->
    <rect x="155" y="340" width="8" height="8" fill="#4de8e0" rx="1"/><rect x="166" y="340" width="8" height="8" fill="#4de8e0" rx="1"/>
    <rect x="177" y="340" width="8" height="8" fill="#4de8e0" rx="1"/><rect x="188" y="340" width="8" height="8" fill="#4de8e0" rx="1"/>
    <rect x="199" y="340" width="8" height="8" fill="#4de8e0" rx="1"/><rect x="210" y="340" width="8" height="8" fill="#4de8e0" rx="1"/>
  </g>

  <!-- ===== PIXEL DISSOLVE ===== -->
  <rect x="336" y="110" width="10" height="10" fill="#5a8a9a" opacity="0.85" rx="1"/>
  <rect x="338" y="128" width="8" height="8" fill="#4a7a8a" opacity="0.75" rx="1"/>
  <rect x="340" y="146" width="11" height="11" fill="#5a8a9a" opacity="0.7" rx="1"/>
  <rect x="336" y="166" width="9" height="9" fill="#4a7a8a" opacity="0.72" rx="1"/>
  <rect x="340" y="184" width="10" height="10" fill="#5a8a9a" opacity="0.65" rx="1"/>
  <rect x="336" y="310" width="10" height="10" fill="#5a8a9a" opacity="0.8" rx="1"/>
  <rect x="340" y="330" width="9" height="9" fill="#4a7a8a" opacity="0.7" rx="1"/>
  <rect x="338" y="350" width="11" height="11" fill="#5a8a9a" opacity="0.65" rx="1"/>
  <rect x="336" y="370" width="8" height="8" fill="#4a7a8a" opacity="0.55" rx="1"/>

  <rect x="352" y="116" width="7" height="7" fill="#4a7a8a" opacity="0.5" rx="1"/>
  <rect x="354" y="136" width="8" height="8" fill="#5a8a9a" opacity="0.42" rx="1"/>
  <rect x="356" y="158" width="6" height="6" fill="#4a7a8a" opacity="0.38" rx="1"/>
  <rect x="352" y="178" width="7" height="7" fill="#5a8a9a" opacity="0.35" rx="1"/>
  <rect x="352" y="318" width="7" height="7" fill="#5a8a9a" opacity="0.45" rx="1"/>
  <rect x="356" y="340" width="8" height="8" fill="#4a7a8a" opacity="0.4" rx="1"/>
  <rect x="354" y="360" width="6" height="6" fill="#5a8a9a" opacity="0.32" rx="1"/>
  <rect x="352" y="378" width="7" height="7" fill="#4a7a8a" opacity="0.28" rx="1"/>

  <rect x="366" y="122" width="5" height="5" fill="#4a7a8a" opacity="0.28" rx="1"/>
  <rect x="368" y="144" width="4" height="4" fill="#5a8a9a" opacity="0.22" rx="1"/>
  <rect x="366" y="168" width="5" height="5" fill="#4a7a8a" opacity="0.2" rx="1"/>
  <rect x="366" y="326" width="5" height="5" fill="#4a7a8a" opacity="0.25" rx="1"/>
  <rect x="368" y="348" width="4" height="4" fill="#5a8a9a" opacity="0.2" rx="1"/>
  <rect x="366" y="368" width="5" height="5" fill="#4a7a8a" opacity="0.18" rx="1"/>

  <!-- ===== RED SCAN LINE ===== -->
  <rect x="60" y="208" width="340" height="48" fill="url(#scanGlow)"/>
  <g filter="url(#particleGlow)" opacity="0.6">
    <circle cx="85" cy="232" r="1.2" fill="#ff4444"/>
    <circle cx="98" cy="227" r="0.8" fill="#ff6666"/>
    <circle cx="108" cy="236" r="1" fill="#ff4444"/>
    <circle cx="75" cy="229" r="0.8" fill="#ff5555"/>
    <circle cx="380" cy="230" r="1.2" fill="#ff4444"/>
    <circle cx="392" cy="234" r="0.8" fill="#ff6666"/>
    <circle cx="400" cy="228" r="1" fill="#ff4444"/>
    <circle cx="370" cy="236" r="0.8" fill="#ff5555"/>
    <circle cx="362" cy="225" r="1" fill="#ff4444"/>
    <circle cx="90" cy="222" r="0.7" fill="#ff5555"/>
    <circle cx="386" cy="238" r="0.7" fill="#ff4444"/>
  </g>
  <line x1="68" y1="232" x2="395" y2="232" stroke="#aa0000" stroke-width="4" stroke-linecap="round"/>
  <line x1="68" y1="232" x2="395" y2="232" stroke="#dd2222" stroke-width="2.5" stroke-linecap="round" filter="url(#redGlow)"/>

  <!-- ===== CYAN SCAN FRAME CORNERS ===== -->
  <g stroke="#40d8d0" stroke-width="7" stroke-linecap="round" stroke-linejoin="round" fill="none" filter="url(#cyanGlow)">
    <!-- Top-left -->
    <path d="M 78,100 L 78,52 Q 78,40 90,40 L 134,40"/>
    <!-- Top-right -->
    <path d="M 326,40 L 370,40 Q 382,40 382,52 L 382,100"/>
    <!-- Bottom-left -->
    <path d="M 78,358 L 78,406 Q 78,418 90,418 L 134,418"/>
    <!-- Bottom-right -->
    <path d="M 326,418 L 370,418 Q 382,418 382,406 L 382,358"/>
  </g>

</svg>